<?xml version="1.0" encoding="UTF-8" standalone="no"?>
<svg width="122px" height="109px" viewBox="0 0 122 109" version="1.1" xmlns="http://www.w3.org/2000/svg" xmlns:xlink="http://www.w3.org/1999/xlink">
    <!-- Generator: Sketch 40 (33762) - http://www.bohemiancoding.com/sketch -->
    <title>Logo</title>
    <desc>Created with Sketch.</desc>
    <defs>
        <polygon id="path-1" points="0.509566452 108.215827 99.2705342 108.215827 99.2705342 0.669683453 0.509566452 0.669683453"></polygon>
        <polygon id="path-3" points="0 108.215827 121.818968 108.215827 121.818968 0.669683453 0 0.669683453"></polygon>
    </defs>
    <g id="Page-1" stroke="none" stroke-width="1" fill="none" fill-rule="evenodd">
        <g id="Homepage" transform="translate(-213.000000, -33.000000)">
            <g id="Logo" transform="translate(213.000000, 33.000000)">
                <g id="Group-8" transform="translate(11.019355, 0.114489)">
                    <path d="M96.8651665,61.6187978 C95.6963277,73.6268338 86.4172439,83.5717115 78.838289,89.8027475 C73.0641471,94.537582 56.4327923,103.866884 55.2112181,104.506769 C53.4599277,105.397589 51.8880955,106.130006 50.0848568,106.235086 L50.0029987,106.239791 L49.7999277,106.239791 C47.7951923,106.206855 46.0407535,105.389747 44.409889,104.554604 C44.1564439,104.423647 18.3412439,89.6545388 9.83666323,78.3005029 C7.6477471,75.371618 3.85787613,69.3875964 3.03378581,62.1834022 C2.49305032,57.3583878 2.49305032,52.1695173 2.49305032,48.0000712 L2.49305032,11.5289849 L5.60286968,10.9102727 C6.04206968,10.8247978 48.4012568,2.64509281 49.3780439,2.64509281 C49.51736,2.64509281 49.7275148,2.64979784 49.9455406,2.67489137 C57.5496826,3.71313597 65.3002245,5.34578345 72.7965342,6.92510719 C79.586031,8.35543813 86.6045729,9.8336036 93.4302761,10.8561647 L96.8769729,11.370582 L96.8769729,31.7974957 C96.8769729,34.9679058 96.9800826,38.2465317 97.0784697,41.4177259 C97.1815794,44.683805 97.2870503,48.0620209 97.2870503,51.4261216 C97.2870503,55.1925029 97.1493084,58.526805 96.8651665,61.6187978" id="Fill-1" fill="#FFFFFF"></path>
                    <path d="M45.7054503,102.04431 C44.3437729,101.340123 19.952431,87.0862165 12.1066503,76.6120223 C9.13850839,72.6386194 6.47339871,67.3219288 5.84923097,61.8640871 C5.34548903,57.372346 5.32581161,52.6500583 5.32581161,48.0006986 L5.32581161,46.7334755 L5.32581161,14.6827705 L5.32581161,13.8437058 L6.1577729,13.6782453 C20.4262632,10.9116842 49.0395923,5.46874173 49.3780439,5.46874173 C49.4378632,5.46874173 49.5283794,5.46874173 49.622831,5.47893597 C63.9180826,7.43309424 78.6533213,11.5115763 93.1665987,13.6711878 L93.0201987,14.6827705 L93.1665987,13.6711878 L94.0434245,13.8021446 L94.0434245,14.6827705 L94.0434245,31.7973388 C94.0434245,38.2612741 94.454289,44.8216626 94.454289,51.4259647 C94.454289,54.7257633 94.3488181,58.0404612 94.0434245,61.3614324 C92.9556568,72.5327561 83.929231,81.9577273 77.0350503,87.6257273 C71.5560697,92.1174683 55.2403406,101.302483 53.892831,102.007454 C52.5240697,102.703799 51.2143406,103.341332 49.9203535,103.416612 L49.7999277,103.416612 C48.4382503,103.394655 47.0828697,102.749281 45.7054503,102.04431" id="Fill-3" fill="#00B0D8"></path>
                    <g id="Group-7">
                        <mask id="mask-2" fill="white">
                            <use xlink:href="#path-1"></use>
                        </mask>
                        <g id="Clip-6"></g>
                        <path d="M96.8651665,61.6187978 C95.6963277,73.6268338 86.4172439,83.5717115 78.838289,89.8027475 C73.0641471,94.537582 56.4327923,103.866884 55.2112181,104.506769 C53.4599277,105.397589 51.8880955,106.130006 50.0848568,106.235086 L50.0029987,106.239791 L49.7999277,106.239791 C47.7951923,106.206855 46.0407535,105.389747 44.409889,104.554604 C44.1564439,104.423647 18.3412439,89.6545388 9.83666323,78.3005029 C7.6477471,75.371618 3.85787613,69.3875964 3.03378581,62.1834022 C2.49305032,57.3583878 2.49305032,52.1695173 2.49305032,48.0000712 L2.49305032,11.5289849 L5.60286968,10.9102727 C6.04206968,10.8247978 48.4012568,2.64509281 49.3780439,2.64509281 C49.51736,2.64509281 49.7275148,2.64979784 49.9455406,2.67489137 C57.5496826,3.71313597 65.3002245,5.34578345 72.7965342,6.92510719 C79.586031,8.35543813 86.6045729,9.8336036 93.4302761,10.8561647 L96.8769729,11.370582 L96.8769729,31.7974957 C96.8769729,34.9679058 96.9800826,38.2465317 97.0784697,41.4177259 C97.1815794,44.683805 97.2870503,48.0620209 97.2870503,51.4261216 C97.2870503,55.1925029 97.1493084,58.526805 96.8651665,61.6187978 M99.0595923,41.3126468 C98.9619923,38.1712511 98.8596697,34.9224237 98.8596697,31.7974957 L98.8596697,9.66892734 L93.7254374,8.90200647 C86.963489,7.88963957 79.9795794,6.41853165 73.2066116,4.99212158 C65.678031,3.40574029 57.8920697,1.76525108 50.1714374,0.711323022 C49.866831,0.676819424 49.5724568,0.668977698 49.3780439,0.668977698 C48.0761858,0.668977698 5.65009548,8.88789137 5.21483097,8.97258201 L0.509566452,9.90888417 L0.509566452,48.0000712 C0.509566452,52.2189201 0.509566452,57.4689561 1.06289548,62.4068914 C1.93972129,70.071395 5.93896,76.3941791 8.24672774,79.4830353 C17.0039665,91.1726971 43.2504955,106.181762 43.5039406,106.312719 C45.2615277,107.212949 47.3402503,108.175913 49.7999277,108.215906 L50.0628181,108.215906 L50.20056,108.20728 C52.3847535,108.081028 54.2438761,107.21687 56.1336955,106.256258 C57.4245342,105.580301 74.1015406,96.2455101 80.1000052,91.3271791 C87.9678245,84.8585388 97.6050374,74.4870712 98.8407794,61.7991576 C99.1296439,58.6507043 99.2705342,55.2583734 99.2705342,51.4261216 C99.2705342,47.9930137 99.1595535,44.4665892 99.0595923,41.3126468" id="Fill-5" fill="#00B0D8" mask="url(#mask-2)"></path>
                    </g>
                </g>
                <polygon id="Fill-9" points="16.2818839 62.3825036 105.273406 62.3825036 105.273406 56.589036 16.2818839 56.589036"></polygon>
                <g id="Group-40" transform="translate(0.000000, 0.114489)">
                    <path d="M106.154325,47.8717022 L15.9034477,47.8717022 C15.8263123,47.5831266 16.3387123,47.8818964 16.1868026,47.5188245 C16.25528,47.1690835 15.7224155,47.4176662 15.9034477,46.9550043 C15.7767252,46.5213568 16.3678348,46.8067957 16.1868026,46.3198245 C16.3513058,45.9214647 15.8735381,46.1629899 15.9034477,45.8971554 C15.7452413,45.3858748 16.1238348,45.4109683 16.1868026,45.1216086 C16.3434348,44.6840403 15.7483897,44.9945727 15.9034477,44.5570043 C15.7224155,44.0943424 16.25528,44.3429252 16.1868026,43.9931842 C16.2434735,43.5846302 15.7113961,43.7610691 15.9034477,43.2168532 C15.7649187,42.8435871 16.3261187,43.1674504 16.1868026,42.7941842 C16.3678348,42.3079971 15.7767252,42.593436 15.9034477,42.1590043 C15.7381574,41.6649755 16.35288,41.948846 16.1868026,41.4548173 C16.3576026,41.0258748 15.7948284,41.3269971 15.9034477,40.9607885 C15.7239897,40.4753856 16.2119897,40.6557453 16.1868026,40.3256086 C16.369409,39.8637309 15.8357574,40.1123137 15.9034477,39.7617885 C17.2769316,39.0364288 19.7885574,39.4473353 21.7799123,39.3383353 C21.9444155,38.4922129 21.8035252,37.3410475 21.850751,36.3765151 C22.0428026,36.2392849 22.1789703,36.0455942 22.2041574,35.7421194 C22.7094735,35.8464144 22.7322994,35.4684432 23.1242735,35.4598173 C23.3910994,35.0434216 24.0349445,35.0042129 24.1860671,34.4725439 C24.74648,34.372954 25.0904413,34.0577165 25.3895381,33.6969971 C25.690209,33.7401266 25.9562477,33.6381842 26.1679768,33.6969971 C26.3710477,33.7534576 26.2640026,33.8679468 26.3797058,33.9792993 C26.4292929,34.0255655 26.6150477,33.9322489 26.6630606,33.9792993 C26.7071381,34.0224288 26.6150477,34.2247453 26.6630606,34.2616014 C26.8173316,34.3784432 27.1935639,34.3753065 27.300609,34.4725439 C27.4674735,34.6246734 27.2392155,34.9477525 27.5831768,34.8246374 C28.0066348,33.3660763 27.4438606,30.9241626 27.8673187,29.4656014 L27.8673187,35.036364 C28.3915252,35.1963353 28.5749187,35.6935007 29.21168,35.7421194 C29.30928,35.8330835 29.2817316,36.0479468 29.2825187,36.2361482 L29.7783897,36.2361482 L29.7783897,37.2932129 C31.2006735,37.3339899 32.6017058,37.3951554 34.0956155,37.3645727 L34.0956155,43.4991554 C34.4458735,43.6795151 35.0786994,43.6058029 35.0157316,43.1470619 L36.149151,43.1470619 C36.3915768,43.2105799 36.2475381,43.6591266 36.7150735,43.4991554 C36.8795768,41.0776302 36.7386865,38.3510619 36.7851252,35.812695 C37.3250735,35.4558964 36.9661574,34.205141 37.0692671,33.414695 L40.5372155,33.414695 C40.6993574,33.3166734 40.5631897,32.9238029 40.6088413,32.7097237 L44.8552284,32.7097237 L44.8552284,33.6264216 C45.02288,33.7887453 45.4912026,33.6522993 45.7745574,33.6969971 L45.7745574,35.6715439 C46.5010477,35.8895439 47.4502865,35.8840547 48.3231768,35.953846 C48.4522606,33.8757885 48.3940155,31.5852201 48.3940155,29.2538748 C48.3940155,27.0197669 48.2397445,23.6862489 48.6065316,21.9908676 C49.2645445,21.7179755 50.1334994,22.3688388 50.5892284,21.9908676 C50.8725832,21.7548317 50.65928,20.2703928 50.65928,19.5920835 L50.65928,17.0537165 C50.8237832,18.5585439 50.6828929,20.3676302 50.7301187,21.9908676 C51.3243768,21.7634576 52.042209,22.3108101 52.4294606,21.9908676 C52.6986477,21.7658101 52.4995123,20.4797669 52.4995123,19.8038101 L52.4995123,17.4771698 C52.90408,17.9100331 52.1783768,21.6999396 52.6419768,21.9908676 C53.0079768,22.219846 53.082751,21.7571842 53.1370606,21.5674144 L54.7639897,21.5674144 L54.7639897,22.2723856 L55.6140542,22.2723856 C55.522751,22.6229108 55.702209,22.7021122 55.8966219,22.7664144 L55.8966219,35.3900259 C56.10048,35.5860691 56.7506219,35.3374863 56.9599897,35.5303928 L56.9599897,27.6322058 L58.1618865,27.6322058 L58.1618865,21.779141 C58.508209,21.6999396 58.8568929,21.624659 59.2244671,21.5674144 L59.2244671,19.4517165 C58.9773187,19.0149324 58.2051768,19.1027597 58.1618865,18.4644432 C59.58968,18.1468532 61.4857961,18.2966302 63.1174477,18.182141 C63.3866348,18.1256806 63.2071768,18.5154144 63.2583381,18.6761698 L65.453551,18.6761698 L65.453551,19.1686302 C65.4252155,19.4007453 65.1064413,19.3411482 64.8860542,19.3803568 C64.9340671,20.8851842 64.7923897,22.5782129 64.95768,23.9646302 C65.3701187,23.7889755 64.7727123,22.6048748 65.3827123,22.6252633 L65.3827123,21.0741698 C66.2792155,20.7918676 67.9974477,21.3290259 68.5680929,20.7205079 C69.1143381,21.3055007 70.5570865,20.9957525 71.6102219,21.0741698 C71.6133703,21.447436 71.5149832,21.9218604 71.8943639,21.9195079 L71.8943639,24.1763568 C71.7810219,24.453954 72.2005445,24.2006662 72.1777187,24.3880835 C72.0934994,25.2938029 72.2493445,25.9627022 72.3910219,26.6449324 C72.3579639,26.8409755 72.7766994,26.5892561 72.7436413,26.7852993 C72.8648542,27.3938173 72.4610735,28.5245942 73.0269961,28.6900547 L73.0269961,34.3313928 C73.2883123,34.4945007 73.8526606,34.3557022 74.2312542,34.4019683 L74.2312542,35.036364 C74.2194477,35.2371122 74.6657316,34.9783353 74.6547123,35.1782993 L74.6547123,38.4922129 L77.4866865,38.4922129 L77.4866865,29.536177 C78.0533961,29.4663856 78.4453703,29.2217237 79.044351,29.1832993 L79.044351,28.337177 C80.0455381,28.4649971 80.0959123,27.6463209 80.67128,27.3499036 C81.6102865,27.1671914 81.7960413,27.7341482 82.2297316,28.0548748 C83.0246994,27.8133496 83.9322219,27.6816086 84.7775639,27.4910547 L84.7775639,28.0548748 L87.0420413,28.0548748 C87.2018219,28.0023353 87.0703768,27.6596518 87.1136671,27.4910547 C88.2769961,27.8125655 89.3734219,28.2022993 90.5107768,28.5489036 L90.5107768,31.7224504 L92.351009,31.7224504 C92.3982348,33.5323209 92.2573445,35.5303928 92.4234219,37.2226374 C92.8744284,37.0509036 92.5808413,36.4651266 92.5635252,36.0942129 C92.5194477,35.1092921 92.5965832,33.9055871 92.5635252,32.9214504 L93.058609,32.9214504 C92.7626606,32.1098317 93.7953316,32.6203281 93.5552671,31.8628173 L99.99608,31.8628173 C99.7552284,32.5732777 100.661177,32.1404144 100.421112,32.8508748 C100.496674,33.0100619 100.865822,32.8775367 101.058661,32.9214504 L101.058661,39.832364 L103.959899,39.832364 L103.959899,45.0510331 C104.401461,45.1067094 105.596274,44.9522273 106.154325,45.1216086 L106.154325,45.4737022 C106.301512,45.8548101 105.768648,45.5599612 105.73008,45.7567885 L105.73008,46.1794576 C105.652157,46.5150835 106.318828,46.108882 106.154325,46.5315511 C106.36448,47.0467525 105.744248,46.7338676 105.73008,47.0247957 C105.501035,47.6764432 106.38337,47.2208388 106.154325,47.8717022 L106.154325,47.8717022 Z" id="Fill-11" fill="#FFFFFF"></path>
                    <path d="M16.6666168,59.6989863 C16.7240748,60.4251302 16.7886168,61.1481374 16.8689006,61.8640871 C17.4930684,67.3219288 20.1581781,72.6386194 23.12632,76.6120223 C30.9721006,87.0862165 55.3626555,101.340123 56.72512,102.04431 C58.1025394,102.749281 59.4571329,103.394655 60.8195974,103.416612 L60.9400232,103.416612 C62.2340103,103.341332 63.5437394,102.703799 64.9125006,102.007454 C66.2600103,101.302483 82.5749523,92.1174683 88.0539329,87.6257273 C94.9481135,81.9577273 103.975326,72.5327561 105.063094,61.3614324 C105.113468,60.8070223 105.151249,60.2533964 105.192178,59.6989863 L16.6666168,59.6989863 Z" id="Fill-13" fill="#1B75BB"></path>
                    <mask id="mask-4" fill="white">
                        <use xlink:href="#path-3"></use>
                    </mask>
                    <g id="Clip-16"></g>
                    <polygon id="Fill-15" fill="#1B75BB" mask="url(#mask-4)" points="0 68.6496115 121.818968 68.6496115 121.818968 47.1013309 0 47.1013309"></polygon>
                    <polygon id="Fill-17" fill="#FFFFFF" mask="url(#mask-4)" points="3.68337677 63.7776252 5.58421548 51.9734741 7.85813806 51.9734741 10.8066026 59.0349489 13.7550671 51.9734741 16.0289897 51.9734741 17.9298284 63.7776252 15.19388 63.7776252 14.2525123 56.7349705 11.2859445 63.7776252 10.3264735 63.7776252 7.3606929 56.7349705 6.42011226 63.7776252"></polygon>
                    <polygon id="Fill-18" fill="#FFFFFF" mask="url(#mask-4)" points="20.0237419 63.7775468 22.7589032 63.7775468 22.7589032 51.9733957 20.0237419 51.9733957"></polygon>
                    <path d="M28.1402839,61.4771763 L28.8691355,61.4771763 C29.4374194,61.4771763 30.6810323,61.4238525 31.5688774,60.6804568 C32.2087871,60.1495719 32.7227613,59.1411259 32.7227613,57.8315576 C32.7227613,56.557277 32.2087871,55.7433058 31.7459742,55.2829964 C30.858129,54.3984496 29.7034581,54.2745504 28.8691355,54.2745504 L28.1402839,54.2745504 L28.1402839,61.4771763 Z M29.1524903,51.9737878 C30.7156645,51.9737878 32.3685677,52.2043345 33.8246968,53.6025144 C34.8723226,54.6109604 35.5303355,55.9911043 35.5303355,57.8315576 C35.5303355,59.6892626 34.8904258,61.0349029 33.9136387,62.0080612 C32.2796258,63.6540396 30.2371097,63.7779388 29.2414323,63.7779388 L25.4043355,63.7779388 L25.4043355,51.9737878 L29.1524903,51.9737878 Z" id="Fill-19" fill="#FFFFFF" mask="url(#mask-4)"></path>
                    <polygon id="Fill-20" fill="#FFFFFF" mask="url(#mask-4)" points="39.1880529 51.9736309 41.7106981 59.7957532 44.2325561 51.9736309 46.1152916 51.9736309 48.6379368 59.7957532 51.1597948 51.9736309 54.0020013 51.9736309 49.9704916 63.777782 47.6619368 63.777782 45.1739239 56.6104439 42.6874852 63.777782 40.3781432 63.777782 36.3466335 51.9736309"></polygon>
                    <polygon id="Fill-21" fill="#FFFFFF" mask="url(#mask-4)" points="62.0645484 54.274864 58.1038774 54.274864 58.1038774 56.5575906 61.8693484 56.5575906 61.8693484 58.8575691 58.1038774 58.8575691 58.1038774 61.4774899 62.0645484 61.4774899 62.0645484 63.7774683 55.367929 63.7774683 55.367929 51.9733173 62.0645484 51.9733173"></polygon>
                    <path d="M70.3943935,54.858759 C69.5065484,54.0620396 68.7422774,54.0095 68.4054,54.0095 C68.0323161,54.0095 67.5702903,54.0620396 67.250729,54.4157014 C67.0728452,54.5929245 66.9484839,54.858759 66.9484839,55.1590971 C66.9484839,55.4429676 67.0374258,55.6554784 67.2153097,55.8138813 C67.4994516,56.0797158 67.9079548,56.1855791 68.7068581,56.4867014 L69.5947032,56.8231115 C70.1110387,57.0175863 70.7501613,57.2826367 71.2121871,57.7249101 C71.9040452,58.3804784 72.0827161,59.2289532 72.0827161,59.9198094 C72.0827161,61.1407662 71.6561097,62.2033201 71.0335161,62.8392842 C69.9858903,63.9371259 68.4589226,64.0429892 67.6773355,64.0429892 C66.8249097,64.0429892 66.0787419,63.9198741 65.3317871,63.5473921 C64.728871,63.247054 64.0354387,62.6981331 63.5915161,62.2558597 L65.0122258,60.3095432 C65.3152581,60.6098813 65.7938129,61.0168669 66.1141613,61.2113417 C66.5754,61.4944281 67.055529,61.6363633 67.6057097,61.6363633 C67.9614774,61.6363633 68.4589226,61.5657878 68.8493226,61.2293777 C69.0799419,61.0341187 69.275929,60.7157446 69.275929,60.2742554 C69.275929,59.8845216 69.1153613,59.636723 68.8674258,59.4242122 C68.5470774,59.1583777 67.8190129,58.8933273 67.4813484,58.7694281 L66.5045613,58.433018 C65.9543806,58.2385432 65.3152581,57.9907446 64.8532323,57.4951475 C64.2306387,56.8403633 64.1424839,56.0083561 64.1424839,55.4429676 C64.1424839,54.3984496 64.4620452,53.5139029 65.1720065,52.787759 C66.0071161,51.9385 67.0020065,51.7087374 68.1039419,51.7087374 C68.9201613,51.7087374 70.2354,51.8498885 71.6206903,52.8763705 L70.3943935,54.858759 Z" id="Fill-22" fill="#FFFFFF" mask="url(#mask-4)"></path>
                    <polygon id="Fill-23" fill="#FFFFFF" mask="url(#mask-4)" points="78.20932 54.274864 78.20932 63.7774683 75.4733716 63.7774683 75.4733716 54.274864 72.8987781 54.274864 72.8987781 51.9733173 80.7847006 51.9733173 80.7847006 54.274864"></polygon>
                    <path d="M89.0964426,57.4069281 L90.0732297,57.4069281 C90.4463135,57.4069281 91.1035394,57.3888921 91.5474619,56.9638705 C91.7961845,56.7168561 91.9913845,56.3098705 91.9913845,55.7962374 C91.9913845,55.3006403 91.8142877,54.8936547 91.5474619,54.6458561 C91.1397458,54.2569065 90.5533587,54.2035827 90.0197071,54.2035827 L89.0964426,54.2035827 L89.0964426,57.4069281 Z M90.5352555,51.9733957 C91.5655652,51.9733957 92.7021329,52.1153309 93.6427135,52.9473381 C94.6557071,53.8318849 94.7981716,55.0003022 94.7981716,55.8142734 C94.7981716,57.3002806 94.2291006,58.1322878 93.7859652,58.5925971 C92.8445974,59.5477194 91.6009845,59.6371151 90.7658748,59.6371151 L89.0964426,59.6371151 L89.0964426,63.7775468 L86.3604942,63.7775468 L86.3604942,51.9733957 L90.5352555,51.9733957 Z" id="Fill-24" fill="#FFFFFF" mask="url(#mask-4)"></path>
                    <polygon id="Fill-25" fill="#FFFFFF" mask="url(#mask-4)" points="99.254871 56.4688223 103.979813 56.4688223 103.979813 51.9739446 106.715761 51.9739446 106.715761 63.7773115 103.979813 63.7773115 103.979813 58.7695849 99.254871 58.7695849 99.254871 63.7773115 96.5197097 63.7773115 96.5197097 51.9739446 99.254871 51.9739446"></polygon>
                    <path d="M112.043698,57.4069281 L113.020485,57.4069281 C113.393569,57.4069281 114.051582,57.3888921 114.494717,56.9638705 C114.74344,56.7168561 114.93864,56.3098705 114.93864,55.7962374 C114.93864,55.3006403 114.761543,54.8936547 114.494717,54.6458561 C114.087001,54.2569065 113.500614,54.2035827 112.966963,54.2035827 L112.043698,54.2035827 L112.043698,57.4069281 Z M113.482511,51.9733957 C114.512821,51.9733957 115.649388,52.1153309 116.589969,52.9473381 C117.602963,53.8318849 117.745427,55.0003022 117.745427,55.8142734 C117.745427,57.3002806 117.176356,58.1322878 116.733221,58.5925971 C115.791853,59.5477194 114.54824,59.6371151 113.71313,59.6371151 L112.043698,59.6371151 L112.043698,63.7775468 L109.30775,63.7775468 L109.30775,51.9733957 L113.482511,51.9733957 Z" id="Fill-26" fill="#FFFFFF" mask="url(#mask-4)"></path>
                    <polygon id="Fill-27" fill="#FFFFFF" mask="url(#mask-4)" points="9.34677419 75.4131007 112.472194 75.4131007 112.472194 68.1108849 9.34677419 68.1108849"></polygon>
                    <polygon id="Fill-28" fill="#000000" mask="url(#mask-4)" points="9.34677419 76.8998921 112.472194 76.8998921 112.472194 72.8316043 9.34677419 72.8316043"></polygon>
                    <polygon id="Fill-29" fill="#1B75BB" mask="url(#mask-4)" points="9.2483871 75.968295 112.570581 75.968295 112.570581 68.6660791 9.2483871 68.6660791"></polygon>
                    <path d="M17.0932232,73.2312971 C16.8169523,73.8868655 16.0715716,74.4506856 15.1325652,74.4506856 C13.8677006,74.4506856 12.9035071,73.4783115 12.9035071,72.2479446 C12.9035071,71.0340453 13.8440877,70.0444194 15.1254813,70.0444194 C16.1809781,70.0444194 16.8460748,70.7470381 17.0932232,71.2873331 L16.5808232,71.2873331 C16.4359974,71.0340453 15.9511458,70.464736 15.1254813,70.464736 C14.1258684,70.464736 13.3765523,71.2528295 13.3765523,72.2424554 C13.3765523,73.2477647 14.1337394,74.0303691 15.1254813,74.0303691 C16.0204103,74.0303691 16.4761394,73.3920525 16.5808232,73.2312971 L17.0932232,73.2312971 Z" id="Fill-30" fill="#FFFFFF" mask="url(#mask-4)"></path>
                    <path d="M24.5867781,72.248023 C24.5867781,73.2478432 25.342391,74.0296633 26.3412168,74.0296633 C27.3526361,74.0296633 28.0901458,73.2196129 28.0901458,72.248023 C28.0901458,71.2756489 27.3526361,70.4648144 26.3364942,70.4648144 C25.3305845,70.4648144 24.5867781,71.2583971 24.5867781,72.2425338 L24.5867781,72.248023 Z M24.1082232,72.2597856 C24.1082232,70.9478647 25.1290877,70.0444978 26.3364942,70.0444978 C27.5879781,70.0444978 28.5647652,70.998836 28.5647652,72.248023 C28.5647652,73.4964259 27.5942748,74.450764 26.3364942,74.450764 C25.0716297,74.450764 24.1082232,73.4783899 24.1082232,72.2644906 L24.1082232,72.2597856 Z" id="Fill-31" fill="#FFFFFF" mask="url(#mask-4)"></path>
                    <polygon id="Fill-32" fill="#FFFFFF" mask="url(#mask-4)" points="38.7990697 73.6739626 38.7927729 70.1185237 39.2547987 70.1185237 39.2547987 74.3765813 38.7927729 74.3765813 36.2591084 70.7921281 36.2709148 74.3765813 35.8081019 74.3765813 35.8081019 70.1185237 36.2937406 70.1185237"></polygon>
                    <polygon id="Fill-33" fill="#FFFFFF" mask="url(#mask-4)" points="46.696169 70.118759 48.8654077 70.118759 48.8654077 70.5390755 47.1692142 70.5390755 47.1692142 72.0337086 48.8551755 72.0337086 48.8551755 72.4595144 47.1692142 72.4595144 47.1692142 74.3768165 46.696169 74.3768165"></polygon>
                    <polygon id="Fill-34" fill="#FFFFFF" mask="url(#mask-4)" points="56.0929239 70.118759 58.4589368 70.118759 58.4589368 70.5390755 56.565969 70.5390755 56.565969 72.0180252 58.4487045 72.0180252 58.4487045 72.4375576 56.565969 72.4375576 56.565969 73.9549317 58.4589368 73.9549317 58.4589368 74.3768165 56.0929239 74.3768165"></polygon>
                    <path d="M65.7617781,70.118759 L66.87552,70.118759 C67.5461265,70.118759 67.8554555,70.2003129 68.0750555,70.3391115 C68.4221652,70.5453489 68.6575071,70.9993849 68.6575071,71.4824353 C68.664591,71.7710108 68.5843071,72.0744856 68.4040619,72.3152266 C68.1498297,72.6610468 67.8444361,72.7426007 67.4524619,72.7825935 L68.5150426,74.3768165 L67.9947716,74.3768165 L66.7889394,72.5183273 L66.9266813,72.5183273 C67.2273523,72.5183273 67.6421523,72.5128381 67.8727716,72.298759 C68.0986684,72.080759 68.1978426,71.821982 68.1978426,71.5169388 C68.1978426,71.2017014 68.0412103,70.8676439 67.7767458,70.6943417 C67.5618684,70.5563273 67.2958297,70.5390755 66.9101523,70.5390755 L66.2387587,70.5390755 L66.2387587,74.3768165 L65.7617781,74.3768165 L65.7617781,70.118759 Z" id="Fill-35" fill="#FFFFFF" mask="url(#mask-4)"></path>
                    <polygon id="Fill-36" fill="#FFFFFF" mask="url(#mask-4)" points="75.7764826 70.118759 78.1424955 70.118759 78.1424955 70.5390755 76.2495277 70.5390755 76.2495277 72.0180252 78.1299019 72.0180252 78.1299019 72.4375576 76.2495277 72.4375576 76.2495277 73.9549317 78.1424955 73.9549317 78.1424955 74.3768165 75.7764826 74.3768165"></polygon>
                    <polygon id="Fill-37" fill="#FFFFFF" mask="url(#mask-4)" points="88.4753445 73.6739626 88.4690477 70.1185237 88.9302865 70.1185237 88.9302865 74.3765813 88.4690477 74.3765813 85.9353832 70.7921281 85.9456155 74.3765813 85.4843768 74.3765813 85.4843768 70.1185237 85.9692284 70.1185237"></polygon>
                    <path d="M100.365622,73.2312971 C100.088564,73.8868655 99.3447574,74.4506856 98.4033897,74.4506856 C97.1393123,74.4506856 96.1743316,73.4783115 96.1743316,72.2479446 C96.1743316,71.0340453 97.1164865,70.0444194 98.39788,70.0444194 C99.4533768,70.0444194 100.118474,70.7470381 100.365622,71.2873331 L99.8524348,71.2873331 C99.707609,71.0340453 99.2227574,70.464736 98.39788,70.464736 C97.3990542,70.464736 96.6481639,71.2528295 96.6481639,72.2424554 C96.6481639,73.2477647 97.4045639,74.0303691 98.39788,74.0303691 C99.2935961,74.0303691 99.747751,73.3920525 99.8524348,73.2312971 L100.365622,73.2312971 Z" id="Fill-38" fill="#FFFFFF" mask="url(#mask-4)"></path>
                    <polygon id="Fill-39" fill="#FFFFFF" mask="url(#mask-4)" points="107.582434 70.118759 109.948446 70.118759 109.948446 70.5390755 108.057053 70.5390755 108.057053 72.0180252 109.93664 72.0180252 109.93664 72.4375576 108.057053 72.4375576 108.057053 73.9549317 109.948446 73.9549317 109.948446 74.3768165 107.582434 74.3768165"></polygon>
                </g>
            </g>
        </g>
    </g>
</svg>