<svg xmlns="http://www.w3.org/2000/svg" xmlns:xlink="http://www.w3.org/1999/xlink" width="282" height="40"
     viewBox="0 0 282 40">
    <g fill="#8E959F">
        <path d="M66.5 37.8l11.2-24.4c.1-.2.3-.4.6-.4h.4c.4 0 .5.2.6.4l11.1 24.4c.2.5-.1.9-.6.9h-3.1c-.5 0-.8-.2-1-.7l-1.8-3.9h-10.9l-1.7 3.9c-.2.4-.5.7-1 .7h-3.1c-.7 0-.9-.5-.7-.9zm15.6-7.8l-3.6-8h-.1l-3.6 8h7.3zM92.9 14c0-.4.3-.7.7-.7h3.4c.4 0 .7.3.7.7v14.8c0 3.1 2.1 5.5 5.2 5.5s5.3-2.4 5.3-5.5v-14.8c0-.4.3-.7.7-.7h3.4c.4 0 .7.3.7.7v15.1c0 5.5-4.4 10-10.1 10-5.7 0-10-4.5-10-10v-15.1zM130.4 13c3.3 0 6.4 1.3 8.8 3.4.3.3.3.7 0 1l-2.2 2.3c-.3.3-.6.3-.9 0-1.6-1.4-3.5-2.1-5.4-2.1-4.5 0-8.1 3.9-8.1 8.4s3.6 8.3 8.1 8.3c2 0 3.6-.6 4.3-.9v-3.1h-3c-.4 0-.7-.3-.7-.7v-2.9c0-.4.3-.7.7-.7h6.9c.4 0 .7.3.7.7v9.3c0 .3-.2.5-.3.6 0 0-3.7 2.4-8.9 2.4-7.2 0-13-5.7-13-13 0-7.2 5.8-13 13-13zM144.6 14c0-.4.3-.7.7-.7h3.4c.4 0 .7.3.7.7v14.8c0 3.1 2.1 5.5 5.2 5.5s5.3-2.4 5.3-5.5v-14.8c0-.4.3-.7.7-.7h3.4c.4 0 .7.3.7.7v15.1c0 5.5-4.4 10-10.1 10-5.7 0-10-4.5-10-10v-15.1zM169.4 35.2l1.3-2.2c.3-.5.9-.5 1.2-.3.2.1 3.1 2.2 5.4 2.2 1.9 0 3.3-1.2 3.3-2.8 0-1.9-1.6-3.1-4.6-4.3-3.4-1.4-6.8-3.6-6.8-7.8 0-3.2 2.4-7 8.1-7 3.7 0 6.5 1.9 7.2 2.4.4.2.5.8.2 1.2l-1.4 2.1c-.3.4-.8.7-1.3.4-.3-.2-3-2-5-2-2.1 0-3.2 1.4-3.2 2.5 0 1.7 1.3 2.9 4.3 4.1 3.5 1.4 7.5 3.5 7.5 8.2 0 3.7-3.2 7.2-8.3 7.2-4.5 0-7.2-2.1-7.9-2.8-.2-.4-.3-.6 0-1.1zM193.8 17.7h-5.5c-.4 0-.7-.3-.7-.7v-3c0-.4.3-.7.7-.7h15.7c.4 0 .7.3.7.7v3c0 .4-.3.7-.7.7h-5.5v20.3c0 .4-.3.7-.7.7h-3.4c-.4 0-.7-.3-.7-.7v-20.3zM213.2 37.8l11.2-24.4c.1-.2.3-.4.6-.4h.4c.4 0 .5.2.6.4l11.1 24.4c.2.5-.1.9-.6.9h-3.1c-.5 0-.8-.2-1-.7l-1.8-3.9h-10.8l-1.8 3.9c-.2.4-.5.7-1 .7h-3.1c-.7 0-.9-.5-.7-.9zm15.6-7.8l-3.6-8h-.2l-3.5 8h7.3zM238.9 35.2l1.3-2.2c.3-.5.9-.5 1.2-.3.2.1 3.1 2.2 5.4 2.2 1.9 0 3.3-1.2 3.3-2.8 0-1.9-1.6-3.1-4.6-4.3-3.4-1.4-6.8-3.6-6.8-7.8 0-3.2 2.4-7 8.1-7 3.7 0 6.5 1.9 7.2 2.4.4.2.5.8.2 1.2l-1.4 2.1c-.3.4-.8.7-1.3.4-.3-.2-3-2-5-2-2.1 0-3.2 1.4-3.2 2.5 0 1.7 1.3 2.9 4.2 4.1 3.5 1.4 7.5 3.5 7.5 8.2 0 3.7-3.2 7.2-8.3 7.2-4.5 0-7.2-2.1-7.9-2.8-.1-.4-.2-.6.1-1.1zM259.9 14c0-.4.3-.7.7-.7h3.4c.4 0 .7.3.7.7v9.6h11.8v-9.6c0-.4.3-.7.7-.7h3.3c.4 0 .7.3.7.7v24c0 .4-.3.7-.7.7h-3.3c-.4 0-.7-.3-.7-.7v-10h-11.8v10c0 .4-.3.7-.7.7h-3.3c-.4 0-.7-.3-.7-.7l-.1-24z"/>
    </g>
    <g>
        <path fill="#34B8E3" d="M27 32.4c3.7 0 6.7 2.5 7.5 6h19.5l-27-38.4-27 38.4h19.5c.8-3.4 3.9-6 7.5-6z"/>
        <g>
            <defs>
                <path id="a" d="M27 0h27.1v38.5h-27.1z"/>
            </defs>
            <clipPath id="b">
                <use xlink:href="#a" overflow="visible"/>
            </clipPath>
            <path clip-path="url(#b)" fill="#1C98C1"
                  d="M27 32.4c3.7 0 6.7 2.5 7.5 6h19.5l-27-38.4-27 38.4h19.5c.8-3.4 3.9-6 7.5-6z"/>
        </g>
    </g>
</svg>
