<?xml version="1.0" encoding="utf-8"?>
<!-- Generator: Adobe Illustrator 19.2.1, SVG Export Plug-In . SVG Version: 6.00 Build 0)  -->
<svg version="1.1" id="Layer_1" xmlns="http://www.w3.org/2000/svg" xmlns:xlink="http://www.w3.org/1999/xlink" x="0px" y="0px"
	 viewBox="0 0 311.9 72.4" style="enable-background:new 0 0 311.9 72.4;" xml:space="preserve">
<style type="text/css">
	.st0{fill:#FFFFFF;}
</style>
<polygon class="st0" points="16.3,10.7 16.3,0.8 22.9,0.8 22.9,26.4 16.3,26.4 16.3,15.9 6.7,15.9 6.7,26.4 0,26.4 0,0.8 6.7,0.8 
	6.7,10.7 "/>
<path class="st0" d="M63.1,13.2c0,8.3-5.9,14.1-14.2,14.1c-8.2,0-14.1-5.8-14.1-14.1C34.8,5.4,41.6,0,48.9,0
	C56.3,0,63.1,5.4,63.1,13.2 M41.7,13.2c0,4.4,3.3,7.6,7.2,7.6c4,0,7.2-3.2,7.2-7.6c0-3.5-3.3-6.8-7.2-6.8C45,6.4,41.7,9.7,41.7,13.2
	"/>
<path class="st0" d="M96.3,26.4H88l-6.3-9.8h-0.1v9.8H75V0.8h9.9c5.1,0,8.9,2.4,8.9,7.9c0,3.5-2,6.6-5.6,7.2L96.3,26.4z M81.6,12.3
	h0.6c2.2,0,4.6-0.4,4.6-3.2c0-2.8-2.4-3.2-4.6-3.2h-0.6V12.3z"/>
<rect x="106.9" y="0.9" class="st0" width="6.6" height="25.6"/>
<polygon class="st0" points="146.8,20.8 146.8,26.4 124.9,26.4 137,6.5 126.9,6.5 126.9,0.8 148.1,0.8 136.1,20.8 "/>
<path class="st0" d="M186.5,13.2c0,8.3-5.9,14.1-14.2,14.1c-8.2,0-14.1-5.8-14.1-14.1C158.2,5.4,165,0,172.3,0S186.5,5.4,186.5,13.2
	 M165.1,13.2c0,4.4,3.3,7.6,7.2,7.6c4,0,7.2-3.2,7.2-7.6c0-3.5-3.3-6.8-7.2-6.8C168.4,6.4,165.1,9.7,165.1,13.2"/>
<polygon class="st0" points="198.4,0.8 205,0.8 217.2,16.5 217.3,16.5 217.3,0.8 223.9,0.8 223.9,26.4 217.3,26.4 205.1,10.8 
	205,10.8 205,26.4 198.4,26.4 "/>
<polygon class="st0" points="247.3,26.4 240.6,26.4 240.6,6.5 235.1,6.5 235.1,0.8 252.8,0.8 252.8,6.5 247.3,6.5 "/>
<path class="st0" d="M268.5,22l-1.8,4.5h-7.1l9.8-25.6h7.3l9.6,25.6h-7.1l-1.7-4.5H268.5z M273.1,8.8L273.1,8.8l-2.8,8.1h5.5
	L273.1,8.8z"/>
<polygon class="st0" points="303.9,20.8 311.9,20.8 311.9,26.4 297.3,26.4 297.3,0.8 303.9,0.8 "/>
<rect y="47.1" class="st0" width="6.4" height="24.4"/>
<polygon class="st0" points="18.9,47.1 25.3,47.1 36.9,62.1 37,62.1 37,47.1 43.3,47.1 43.3,71.6 37,71.6 25.3,56.6 25.3,56.6 
	25.3,71.6 18.9,71.6 "/>
<polygon class="st0" points="65.6,71.6 59.3,71.6 59.3,52.5 54,52.5 54,47.1 70.9,47.1 70.9,52.5 65.6,52.5 "/>
<polygon class="st0" points="87.9,52.5 87.9,56.6 95.1,56.6 95.1,62 87.9,62 87.9,66.2 95.5,66.2 95.5,71.6 81.6,71.6 81.6,47.1 
	95.5,47.1 95.5,52.5 "/>
<path class="st0" d="M132.2,57.9c-0.1,3.6-0.3,6.6-2.5,9.7c-2.4,3.3-6,4.8-10.1,4.8c-7.7,0-13-5.2-13-12.9c0-7.9,5.4-13.2,13.3-13.2
	c5,0,8.9,2.3,11,6.8l-6,2.5c-0.9-2.3-2.7-3.9-5.3-3.9c-4.2,0-6.4,4-6.4,7.7c0,3.8,2.3,7.7,6.4,7.7c2.8,0,4.9-1.4,5.1-4.2h-5.2v-5
	H132.2z"/>
<path class="st0" d="M163.8,71.6h-7.9l-6-9.4h-0.1v9.4h-6.4V47.1h9.5c4.8,0,8.5,2.3,8.5,7.5c0,3.4-1.9,6.3-5.3,6.9L163.8,71.6z
	 M149.9,58.1h0.6c2.1,0,4.4-0.4,4.4-3s-2.3-3-4.4-3h-0.6V58.1z"/>
<path class="st0" d="M180.2,67.3l-1.7,4.2h-6.7l9.4-24.4h6.9l9.2,24.4h-6.8l-1.6-4.2H180.2z M184.6,54.7L184.6,54.7l-2.7,7.8h5.3
	L184.6,54.7z"/>
<polygon class="st0" points="215.5,71.6 209.1,71.6 209.1,52.5 203.9,52.5 203.9,47.1 220.7,47.1 220.7,52.5 215.5,52.5 "/>
<rect x="231.4" y="47.1" class="st0" width="6.4" height="24.4"/>
<path class="st0" d="M276.2,58.9c0,7.9-5.7,13.5-13.5,13.5c-7.8,0-13.5-5.6-13.5-13.5c0-7.4,6.5-12.6,13.5-12.6
	C269.7,46.3,276.2,51.5,276.2,58.9 M255.7,58.9c0,4.2,3.1,7.3,6.9,7.3c3.8,0,6.9-3.1,6.9-7.3c0-3.4-3.1-6.4-6.9-6.4
	C258.9,52.5,255.7,55.6,255.7,58.9"/>
<polygon class="st0" points="287.5,47.1 293.9,47.1 305.5,62.1 305.6,62.1 305.6,47.1 311.9,47.1 311.9,71.6 305.6,71.6 293.9,56.6 
	293.9,56.6 293.9,71.6 287.5,71.6 "/>
</svg>
